<svg xmlns="http://www.w3.org/2000/svg" width="286" height="65.597" viewBox="0 0 286 65.597">
  <path id="logo" d="M286,61.436V4.144C285.99,1.293,284.634.012,281.61,0H258.347c-3.019.012-4.375,1.293-4.388,4.149V61.439c.013,2.848,1.369,4.127,4.391,4.138h23.263c3.022-.011,4.377-1.29,4.388-4.141Zm-8.15-3.149a.952.952,0,0,1-.947.955H263.062a.953.953,0,0,1-.949-.955V7.323a.953.953,0,0,1,.949-.955H276.9a.952.952,0,0,1,.947.955ZM245.237,65.6l-10.646-29.77a.962.962,0,0,1,.118-.873.947.947,0,0,1,.774-.405c4,0,5.6-.263,6.232-.483,1.526-.562,2.245-1.726,2.245-3.66V4.178c0-2.854-1.355-4.131-4.394-4.143H213.061V65.6h8.156V7.323a.952.952,0,0,1,.947-.955h12.693a.952.952,0,0,1,.947.955v21.7a.952.952,0,0,1-.947.955h-8.925v4.68L236.766,65.6Zm-39.18-33.415v-28c0-2.854-1.356-4.131-4.394-4.143h-26.5V65.6h8.153V7.323a.953.953,0,0,1,.948-.955h12.7a.952.952,0,0,1,.947.955v21.7a.952.952,0,0,1-.947.955h-8.925v6.372h9.551c4.139,0,5.682-.319,6.235-.508,1.521-.557,2.24-1.723,2.24-3.657ZM157.278,65.6h7.2V.035h-7.9V41.56c-.011,0-.015.017-.027.021a.956.956,0,0,1-1.154-.567L139.445.035h-7.207l0,65.562h7.9l-.018-42.478c.022-.007.029-.033.051-.039a.938.938,0,0,1,1.153.573Zm-43.881,0h8.155V.035H113.4ZM93.254,6.368h13.581V.035H83.91V65.6h8.4V37.3a.951.951,0,0,1,.947-.955h12.986V29.971H93.254a.952.952,0,0,1-.947-.955V7.323a.952.952,0,0,1,.947-.955ZM73.29,61.439V4.144C73.278,1.293,71.923.012,68.9,0H45.637c-3.023.012-4.38,1.293-4.391,4.149V61.439c.011,2.848,1.368,4.127,4.4,4.138H68.9c3.021-.011,4.376-1.287,4.389-4.138ZM65.137,58.3a.952.952,0,0,1-.947.955H50.351A.952.952,0,0,1,49.4,58.3V7.323a.952.952,0,0,1,.947-.955H64.189a.952.952,0,0,1,.947.955ZM31.252,61.456V45.678H23.1V58.3a.952.952,0,0,1-.947.955H9.1a.952.952,0,0,1-.947-.955V7.323A.952.952,0,0,1,9.1,6.368H22.148a.952.952,0,0,1,.947.955V19.167h8.156V4.178c-.015-2.851-1.37-4.131-4.4-4.143H4.391C1.368.047.012,1.325,0,4.181V61.456c.012,2.85,1.368,4.129,4.4,4.141H26.859c3.022-.011,4.377-1.29,4.393-4.141Z" fill="#FFF" fill-rule="evenodd"/>
</svg>
